{
  "asset": {
    "version": "2.0",
    "generator": "THREE.GLTFExporter"
  },
  "scenes": [
    {
      "nodes": [
        0
      ]
    }
  ],
  "scene": 0,
  "nodes": [
    {
      "children": [
        11
      ],
      "matrix": [
        0.01,
        0,
        0,
        0,
        0,
        0.01,
        0,
        0,
        0,
        0,
        0.01,
        0,
        0,
        0,
        0,
        1
      ]
    },
    {
      "matrix": [
        12.313250679760307,
        0,
        0,
        0,
        0,
        1,
        0,
        0,
        0,
        0,
        1,
        0,
        2130.963785861753,
        98.43692203258541,
        -1077.6457645061635,
        1
      ],
      "name": "Cube 2",
      "mesh": 0
    },
    {
      "matrix": [
        -12.313250679760307,
        1.5079383032067432e-15,
        1.8466918163338287e-31,
        0,
        1.2246467991473532e-16,
        1,
        1.2246467991473532e-16,
        0,
        0,
        1.1714286590557183e-16,
        -0.9565440908115814,
        0,
        1624.6934550150688,
        90.92692453691188,
        -1101.5133089287046,
        1
      ],
      "name": "Cube",
      "mesh": 1
    },
    {
      "matrix": [
        3.378157708279485,
        0,
        0,
        0,
        0,
        3.37815770827975,
        7.501016937094369e-16,
        0,
        0,
        -7.501016937094369e-16,
        3.37815770827975,
        0,
        2112.4104642838147,
        125.41714681912816,
        -1173.5100859269003,
        1
      ],
      "name": "Text 2",
      "mesh": 2
    },
    {
      "matrix": [
        3.378157708279485,
        0,
        0,
        0,
        0,
        3.37815770827975,
        7.501016937094315e-16,
        0,
        0,
        -7.501016937094315e-16,
        3.37815770827975,
        0,
        959.2670495876015,
        118.70250394119557,
        -1233.4413017453808,
        1
      ],
      "name": "Text",
      "mesh": 3
    },
    {
      "matrix": [
        0.9069900941565042,
        -0.4141116513184233,
        -0.07668447916171926,
        0,
        -0.41533464154109706,
        -0.909668695479804,
        0,
        0,
        -0.06975747012258937,
        0.031849720664398395,
        -0.997055410022781,
        0,
        0,
        0,
        0,
        1
      ],
      "name": "Directional Light",
      "extensions": {
        "KHR_lights_punctual": {
          "light": 0
        }
      }
    },
    {
      "matrix": [
        1.5737661716642017,
        -6.51390731257455e-30,
        -2.718054237647755e-15,
        0,
        -2.7180542376477683e-15,
        1.747231439157795e-15,
        -1.5737661716642122,
        0,
        1.992170688788104e-29,
        1.5737661716642162,
        1.8345930111156895e-15,
        0,
        -3001.979735554237,
        -359.8899454373871,
        -1667.3753702422193,
        0.9999999999999999
      ]
    },
    {
      "matrix": [
        -3.232378162441899e-15,
        1.0483388634946702e-15,
        -1.5737661716642015,
        0,
        -1.573766171664202,
        1.4809664072538077e-16,
        3.311402234491239e-15,
        0,
        1.31042357936834e-16,
        1.5737661716642042,
        1.1357004354525606e-15,
        0,
        1447.1419597696686,
        -359.88994543739017,
        1885.4999999999998,
        1
      ]
    },
    {
      "matrix": [
        1,
        0,
        0,
        0,
        0,
        1,
        0,
        0,
        0,
        0,
        0.11076631340113063,
        0,
        -1165.64,
        -23.95250573866241,
        2026.4254062537466,
        1
      ],
      "name": "Group",
      "children": [
        1,
        2,
        3,
        4,
        5,
        6,
        7
      ]
    },
    {
      "matrix": [
        0.7071067872699217,
        -1.2166747165309744e-8,
        -0.7071067751031732,
        0,
        -0.4082482799271503,
        0.816496580927726,
        -0.40824830100057535,
        0,
        0.5773502691896253,
        0.5773502691896255,
        0.5773502691896264,
        0,
        1746.1815491598454,
        1724.5017029456992,
        3725.024244050119,
        1
      ],
      "camera": 0
    },
    {
      "matrix": [
        1,
        0,
        0,
        0,
        0,
        1,
        0,
        0,
        0,
        0,
        1,
        0,
        0,
        1,
        0,
        1
      ],
      "name": "Default Ambient Light"
    },
    {
      "name": "Scene",
      "children": [
        8,
        9,
        10
      ]
    }
  ],
  "bufferViews": [
    {
      "buffer": 0,
      "byteOffset": 0,
      "byteLength": 288,
      "target": 34962,
      "byteStride": 12
    },
    {
      "buffer": 0,
      "byteOffset": 288,
      "byteLength": 288,
      "target": 34962,
      "byteStride": 12
    },
    {
      "buffer": 0,
      "byteOffset": 576,
      "byteLength": 192,
      "target": 34962,
      "byteStride": 8
    },
    {
      "buffer": 0,
      "byteOffset": 768,
      "byteLength": 72,
      "target": 34963
    },
    {
      "buffer": 0,
      "byteOffset": 840,
      "byteLength": 288,
      "target": 34962,
      "byteStride": 12
    },
    {
      "buffer": 0,
      "byteOffset": 1128,
      "byteLength": 288,
      "target": 34962,
      "byteStride": 12
    },
    {
      "buffer": 0,
      "byteOffset": 1416,
      "byteLength": 192,
      "target": 34962,
      "byteStride": 8
    },
    {
      "buffer": 0,
      "byteOffset": 1608,
      "byteLength": 72,
      "target": 34963
    },
    {
      "buffer": 0,
      "byteOffset": 1680,
      "byteLength": 44760,
      "target": 34962,
      "byteStride": 12
    },
    {
      "buffer": 0,
      "byteOffset": 46440,
      "byteLength": 44760,
      "target": 34962,
      "byteStride": 12
    },
    {
      "buffer": 0,
      "byteOffset": 91200,
      "byteLength": 29840,
      "target": 34962,
      "byteStride": 8
    },
    {
      "buffer": 0,
      "byteOffset": 121040,
      "byteLength": 28656,
      "target": 34963
    },
    {
      "buffer": 0,
      "byteOffset": 149696,
      "byteLength": 29256,
      "target": 34962,
      "byteStride": 12
    },
    {
      "buffer": 0,
      "byteOffset": 178952,
      "byteLength": 29256,
      "target": 34962,
      "byteStride": 12
    },
    {
      "buffer": 0,
      "byteOffset": 208208,
      "byteLength": 19504,
      "target": 34962,
      "byteStride": 8
    },
    {
      "buffer": 0,
      "byteOffset": 227712,
      "byteLength": 14544,
      "target": 34963
    }
  ],
  "buffers": [
    {
      "byteLength": 242256,
      "uri": "data:application/octet-stream;base64,"
    }
  ],
  "accessors": [
    {
      "bufferView": 0,
      "componentType": 5126,
      "count": 24,
      "max": [
        55.09671401977539,
        197.22088623046875,
        694.8995971679688
      ],
      "min": [
        -55.09671401977539,
        -197.22088623046875,
        -694.8995971679688
      ],
      "type": "VEC3"
    },
    {
      "bufferView": 1,
      "componentType": 5126,
      "count": 24,
      "max": [
        1,
        1,
        1
      ],
      "min": [
        -1,
        -1,
        -1
      ],
      "type": "VEC3"
    },
    {
      "bufferView": 2,
      "componentType": 5126,
      "count": 24,
      "max": [
        1,
        1
      ],
      "min": [
        0,
        0
      ],
      "type": "VEC2"
    },
    {
      "bufferView": 3,
      "componentType": 5123,
      "count": 36,
      "max": [
        23
      ],
      "min": [
        0
      ],
      "type": "SCALAR"
    },
    {
      "bufferView": 4,
      "componentType": 5126,
      "count": 24,
      "max": [
        96.27015686035156,
        200.68565368652344,
        705.7964477539062
      ],
      "min": [
        -96.27015686035156,
        -200.68565368652344,
        -705.7964477539062
      ],
      "type": "VEC3"
    },
    {
      "bufferView": 5,
      "componentType": 5126,
      "count": 24,
      "max": [
        1,
        1,
        1
      ],
      "min": [
        -1,
        -1,
        -1
      ],
      "type": "VEC3"
    },
    {
      "bufferView": 6,
      "componentType": 5126,
      "count": 24,
      "max": [
        1,
        1
      ],
      "min": [
        0,
        0
      ],
      "type": "VEC2"
    },
    {
      "bufferView": 7,
      "componentType": 5123,
      "count": 36,
      "max": [
        23
      ],
      "min": [
        0
      ],
      "type": "SCALAR"
    },
    {
      "bufferView": 8,
      "componentType": 5126,
      "count": 3730,
      "max": [
        185.58999633789062,
        36.53383255004883,
        330.76708984375
      ],
      "min": [
        -181.83799743652344,
        -59.142173767089844,
        0
      ],
      "type": "VEC3"
    },
    {
      "bufferView": 9,
      "componentType": 5126,
      "count": 3730,
      "max": [
        1,
        1,
        1
      ],
      "min": [
        -1,
        -1,
        -1
      ],
      "type": "VEC3"
    },
    {
      "bufferView": 10,
      "componentType": 5126,
      "count": 3730,
      "max": [
        1,
        1
      ],
      "min": [
        0,
        0
      ],
      "type": "VEC2"
    },
    {
      "bufferView": 11,
      "componentType": 5123,
      "count": 14328,
      "max": [
        3729
      ],
      "min": [
        0
      ],
      "type": "SCALAR"
    },
    {
      "bufferView": 12,
      "componentType": 5126,
      "count": 2438,
      "max": [
        142.30799865722656,
        38.23967742919922,
        352.6577453613281
      ],
      "min": [
        -138.01998901367188,
        -55.560325622558594,
        0
      ],
      "type": "VEC3"
    },
    {
      "bufferView": 13,
      "componentType": 5126,
      "count": 2438,
      "max": [
        1,
        1,
        1
      ],
      "min": [
        -1,
        -1,
        -1
      ],
      "type": "VEC3"
    },
    {
      "bufferView": 14,
      "componentType": 5126,
      "count": 2438,
      "max": [
        1,
        1
      ],
      "min": [
        0,
        0
      ],
      "type": "VEC2"
    },
    {
      "bufferView": 15,
      "componentType": 5123,
      "count": 7272,
      "max": [
        2437
      ],
      "min": [
        0
      ],
      "type": "SCALAR"
    }
  ],
  "meshes": [
    {
      "primitives": [
        {
          "mode": 4,
          "attributes": {
            "POSITION": 0,
            "NORMAL": 1,
            "TEXCOORD_0": 2
          },
          "extras": {
            "parameters": {
              "width": 110.19343083324365,
              "widthSegments": 1,
              "heightSegments": 1,
              "depthSegments": 1,
              "cornerRadius": 0,
              "cornerSegments": 8,
              "height": 394.4417855272815,
              "depth": 1389.799253168722,
              "type": "CubeGeometry"
            },
            "type": "CubeGeometry"
          },
          "indices": 3
        }
      ]
    },
    {
      "primitives": [
        {
          "mode": 4,
          "attributes": {
            "POSITION": 4,
            "NORMAL": 5,
            "TEXCOORD_0": 6
          },
          "extras": {
            "parameters": {
              "width": 192.5403083458005,
              "widthSegments": 1,
              "heightSegments": 1,
              "depthSegments": 1,
              "cornerRadius": 0,
              "cornerSegments": 8,
              "height": 401.371322585881,
              "depth": 1411.5929344722172,
              "type": "CubeGeometry"
            },
            "type": "CubeGeometry"
          },
          "indices": 7
        }
      ]
    },
    {
      "primitives": [
        {
          "mode": 4,
          "attributes": {
            "POSITION": 8,
            "NORMAL": 9,
            "TEXCOORD_0": 10
          },
          "extras": {
            "parameters": {
              "type": "TextGeometry",
              "width": 526.659409115322,
              "height": 138.1916671225461,
              "depth": 330.76710415824374,
              "horizontalAlign": 3,
              "verticalAlign": 1,
              "fontSize": 134,
              "lineHeight": 1.2,
              "letterSpacing": 0,
              "text": {
                "textValue": "Calc"
              },
              "textTransform": 2,
              "font": "Albert Sans_800",
              "extrudeBevelSize": 1,
              "extrudeBevelSegments": 1
            },
            "type": "TextGeometry"
          },
          "indices": 11
        }
      ]
    },
    {
      "primitives": [
        {
          "mode": 4,
          "attributes": {
            "POSITION": 12,
            "NORMAL": 13,
            "TEXCOORD_0": 14
          },
          "extras": {
            "parameters": {
              "type": "TextGeometry",
              "width": 549.609416182383,
              "height": 143.47935612344574,
              "depth": 352.6577509901346,
              "horizontalAlign": 3,
              "verticalAlign": 1,
              "fontSize": 134,
              "lineHeight": 1.2,
              "letterSpacing": 0,
              "text": {
                "textValue": "EB#"
              },
              "textTransform": 2,
              "font": "Albert Sans_800",
              "extrudeBevelSize": 1,
              "extrudeBevelSegments": 1
            },
            "type": "TextGeometry"
          },
          "indices": 15
        }
      ]
    }
  ],
  "extensions": {
    "KHR_lights_punctual": {
      "lights": [
        {
          "name": "Directional Light",
          "color": [
            1,
            1,
            1
          ],
          "intensity": 1.213,
          "type": "directional"
        }
      ]
    }
  },
  "cameras": [
    {
      "type": "perspective",
      "perspective": {
        "aspectRatio": 1.3154670750382849,
        "yfov": 0.7853981633974483,
        "zfar": 100000,
        "znear": 5
      }
    }
  ],
  "extensionsUsed": [
    "KHR_lights_punctual"
  ]
}